<?xml version="1.0" standalone="no"?>
<!DOCTYPE svg PUBLIC "-//W3C//DTD SVG 20010904//EN"
 "http://www.w3.org/TR/2001/REC-SVG-20010904/DTD/svg10.dtd">
<svg version="1.0" xmlns="http://www.w3.org/2000/svg"
 width="480.000000pt" height="480.000000pt" viewBox="0 0 480.000000 480.000000"
 preserveAspectRatio="xMidYMid meet">

<g transform="translate(0.000000,480.000000) scale(0.100000,-0.100000)"
fill="#000000" stroke="none">
<path d="M2373 3089 c-17 -5 -34 -17 -37 -27 -4 -13 -29 -22 -93 -35 -139 -28
-242 -83 -339 -181 -45 -45 -100 -113 -123 -152 -81 -137 -148 -376 -154 -541
-2 -75 -1 -78 26 -91 l27 -13 0 -149 0 -149 26 -20 c15 -12 37 -21 50 -21 13
0 70 25 126 55 203 108 284 145 362 165 190 48 363 11 583 -126 154 -96 230
-117 273 -74 18 18 20 33 20 170 l0 150 25 10 c35 13 39 42 20 174 -54 394
-226 662 -490 761 -34 13 -92 29 -129 35 -48 9 -67 17 -71 30 -4 14 -61 46
-69 39 -1 0 -15 -5 -33 -10z m55 -25 c37 -10 25 -24 -23 -24 -58 0 -61 17 -5
29 3 0 15 -2 28 -5z m-26 -436 l3 -383 5 385 c3 212 6 375 8 363 3 -28 22 -31
22 -3 0 17 7 20 38 20 55 0 181 -34 244 -66 113 -57 222 -166 278 -278 29 -57
30 -64 30 -198 0 -77 -5 -170 -11 -208 -15 -97 -6 -122 11 -30 7 41 14 134 14
206 1 73 4 130 9 127 4 -2 7 -38 7 -79 0 -52 3 -73 11 -68 6 3 9 19 7 35 -3
16 -2 29 2 29 21 0 82 -372 64 -390 -5 -5 -27 -1 -57 13 -47 22 -48 22 -41 61
4 27 3 36 -5 32 -6 -4 -11 -18 -11 -32 0 -30 0 -30 -105 1 -176 51 -252 59
-525 59 -275 0 -376 -11 -530 -60 -41 -13 -80 -24 -86 -24 -6 0 -16 17 -22 38
l-11 37 5 -45 4 -45 -47 -23 c-31 -15 -50 -19 -57 -12 -14 14 9 192 38 305 22
80 24 85 25 48 2 -79 21 -45 23 40 l2 82 3 -75 c4 -116 23 -287 33 -312 8 -18
9 -15 5 17 -3 22 -8 124 -11 226 l-6 187 33 63 c52 98 184 227 281 273 88 42
176 64 261 65 l57 1 2 -382z m198 -433 c156 -9 342 -53 456 -107 l44 -20 0
-138 c0 -76 -4 -150 -9 -163 -22 -56 -76 -42 -264 70 -70 41 -167 89 -215 106
-78 28 -99 31 -207 31 -173 1 -236 -21 -510 -173 -179 -100 -195 -89 -195 125
l0 141 61 28 c203 91 471 123 839 100z"/>
<path d="M2086 2924 c-9 -8 -16 -19 -16 -24 0 -11 29 -40 40 -40 13 0 40 30
40 44 0 16 -20 36 -36 36 -7 0 -20 -7 -28 -16z m44 -24 c0 -13 -7 -20 -20 -20
-13 0 -20 7 -20 20 0 13 7 20 20 20 13 0 20 -7 20 -20z"/>
<path d="M2672 2928 c-18 -18 -14 -46 7 -58 11 -5 22 -10 25 -10 8 0 36 31 36
40 0 13 -30 40 -44 40 -6 0 -17 -5 -24 -12z m48 -28 c0 -13 -7 -20 -20 -20
-13 0 -20 7 -20 20 0 13 7 20 20 20 13 0 20 -7 20 -20z"/>
<path d="M2420 2821 c0 -63 4 -112 10 -116 6 -4 10 35 10 109 0 71 -4 116 -10
116 -6 0 -10 -43 -10 -109z"/>
<path d="M2373 2495 c0 -44 2 -61 4 -37 2 23 2 59 0 80 -2 20 -4 1 -4 -43z"/>
<path d="M2373 2330 c0 -30 2 -43 4 -27 2 15 2 39 0 55 -2 15 -4 2 -4 -28z"/>
<path d="M1732 2325 c0 -22 3 -49 8 -60 7 -17 9 -15 8 10 0 17 -4 44 -8 60 -7
29 -8 28 -8 -10z"/>
<path d="M3058 2340 c-4 -14 -7 -43 -7 -65 l1 -40 9 40 c6 22 8 51 7 65 l-3
25 -7 -25z"/>
<path d="M1750 2020 c0 -27 5 -50 10 -50 6 0 10 23 10 50 0 28 -4 50 -10 50
-5 0 -10 -22 -10 -50z"/>
<path d="M3030 1956 c0 -69 -4 -117 -10 -121 -6 -4 -68 25 -138 64 -156 86
-217 113 -307 136 -93 24 -266 24 -355 1 -87 -24 -200 -68 -200 -79 0 -5 8 -6
18 -2 304 125 510 112 803 -51 208 -116 209 -116 209 52 0 69 -4 114 -10 114
-6 0 -10 -45 -10 -114z"/>
<path d="M1722 1928 c-2 -121 -1 -128 20 -142 12 -9 28 -16 35 -16 7 0 73 34
146 75 149 84 239 120 345 141 137 26 276 10 411 -49 98 -42 109 -33 14 11
-94 43 -182 62 -293 62 -167 0 -266 -31 -485 -154 -119 -66 -156 -77 -172 -53
-4 6 -11 66 -14 132 l-5 120 -2 -127z"/>
<path d="M3068 2044 c-5 -4 -8 -62 -8 -129 0 -150 -6 -160 -77 -126 -50 24
-69 22 -30 -4 41 -27 89 -30 110 -7 15 17 17 36 15 146 -2 70 -6 124 -10 120z"/>
<path d="M1752 1894 c4 -66 22 -75 88 -44 29 13 47 26 42 28 -6 2 -29 -6 -52
-18 -22 -11 -45 -18 -50 -15 -6 3 -10 26 -10 51 0 24 -5 44 -11 44 -6 0 -9
-19 -7 -46z"/>
<path d="M1943 1923 c-18 -9 -33 -20 -33 -25 0 -12 5 -10 44 13 55 32 46 40
-11 12z"/>
<path d="M2780 1897 c0 -9 102 -69 107 -63 3 2 -14 16 -37 31 -46 29 -70 40
-70 32z"/>
</g>
</svg>
